<svg width="430" height="167" viewBox="0 0 430 167" fill="none" xmlns="http://www.w3.org/2000/svg">
<g filter="url(#filter0_di_786_9022)">
<path fill-rule="evenodd" clip-rule="evenodd" d="M47.2915 19.9995H33.3171H33.3159C28.1708 20.0001 24 24.1326 24 29.2303C24 34.3279 28.1708 38.4604 33.3159 38.4611H33.3171H37.9746V131.157C37.9746 135.261 41.3015 138.588 45.4053 138.588H51.506C55.6099 138.588 58.9367 135.261 58.9367 131.157V98.0116C58.9367 93.9077 62.2636 90.5808 66.3674 90.5808H82.2059C84.9869 90.5808 87.5352 92.1338 88.81 94.6055L109.418 134.563C110.693 137.035 113.241 138.588 116.022 138.588H122.894C128.483 138.588 132.071 132.65 129.472 127.702L110.187 90.9843C110.09 90.8009 110.223 90.5808 110.431 90.5808C120 90.5808 128.051 83.0562 128.051 73.1238V37.4571C128.051 27.5246 120 20 110.431 20L47.2915 19.9995ZM107.089 41.3699V69.211C107.089 70.7159 105.874 71.9198 104.355 71.9198H66.3674C62.2636 71.9198 58.9367 68.593 58.9367 64.4891V46.0918C58.9367 41.9879 62.2636 38.661 66.3674 38.661H104.355C105.874 38.661 107.089 39.865 107.089 41.3699ZM156.895 138.588H225.25C234.819 138.588 242.87 131.063 242.87 121.131V27.4307C242.87 23.3268 239.543 20 235.439 20H229.339C225.235 20 221.908 23.3268 221.908 27.4307V117.218C221.908 118.723 220.693 119.927 219.174 119.927H162.971C161.452 119.927 160.237 118.723 160.237 117.218V27.4307C160.237 23.3268 156.91 20 152.806 20H146.706C142.602 20 139.275 23.3268 139.275 27.4307V121.131C139.275 131.063 147.325 138.588 156.895 138.588ZM306.486 131.157C306.486 135.261 303.159 138.588 299.055 138.588H292.955C288.851 138.588 285.524 135.261 285.524 131.157V46.0918C285.524 41.9879 282.197 38.661 278.093 38.661H258.018C253.914 38.661 250.587 35.3342 250.587 31.2303V27.4307C250.587 23.3268 253.914 20 258.018 20H333.992C338.096 20 341.423 23.3268 341.423 27.4307V31.2303C341.423 35.3342 338.096 38.661 333.992 38.661H313.917C309.813 38.661 306.486 41.9879 306.486 46.0918V131.157ZM363.629 138.588C367.733 138.588 371.06 135.261 371.06 131.157V27.4307C371.06 23.3268 367.733 20 363.629 20H357.529C353.425 20 350.098 23.3268 350.098 27.4307V131.157C350.098 135.261 353.425 138.588 357.529 138.588H363.629ZM396.626 137.692C401.74 137.692 405.886 133.56 405.886 128.461C405.886 123.363 401.74 119.231 396.626 119.231C391.511 119.231 387.365 123.363 387.365 128.461C387.365 133.56 391.511 137.692 396.626 137.692Z" fill="url(#paint0_linear_786_9022)"/>
</g>
<defs>
<filter id="filter0_di_786_9022" x="0" y="-0.000488281" width="429.887" height="166.588" filterUnits="userSpaceOnUse" color-interpolation-filters="sRGB">
<feFlood flood-opacity="0" result="BackgroundImageFix"/>
<feColorMatrix in="SourceAlpha" type="matrix" values="0 0 0 0 0 0 0 0 0 0 0 0 0 0 0 0 0 0 127 0" result="hardAlpha"/>
<feOffset dy="4"/>
<feGaussianBlur stdDeviation="12"/>
<feComposite in2="hardAlpha" operator="out"/>
<feColorMatrix type="matrix" values="0 0 0 0 0.0666667 0 0 0 0 0.0666667 0 0 0 0 0.0666667 0 0 0 0.4 0"/>
<feBlend mode="normal" in2="BackgroundImageFix" result="effect1_dropShadow_786_9022"/>
<feBlend mode="normal" in="SourceGraphic" in2="effect1_dropShadow_786_9022" result="shape"/>
<feColorMatrix in="SourceAlpha" type="matrix" values="0 0 0 0 0 0 0 0 0 0 0 0 0 0 0 0 0 0 127 0" result="hardAlpha"/>
<feOffset dy="-4.63"/>
<feGaussianBlur stdDeviation="4.63"/>
<feComposite in2="hardAlpha" operator="arithmetic" k2="-1" k3="1"/>
<feColorMatrix type="matrix" values="0 0 0 0 0.0666667 0 0 0 0 0.0666667 0 0 0 0 0.0666667 0 0 0 0.25 0"/>
<feBlend mode="normal" in2="shape" result="effect2_innerShadow_786_9022"/>
</filter>
<linearGradient id="paint0_linear_786_9022" x1="-330.378" y1="-63.5064" x2="50.1528" y2="419.088" gradientUnits="userSpaceOnUse">
<stop stop-color="#E0E0E0"/>
<stop offset="1" stop-color="#54ADFF"/>
</linearGradient>
</defs>
</svg>
